# AST/ASF file generated using VICON BodyLanguage
# -----------------------------------------------
:version 1.10
:name VICON
:units
  mass 1.0
  length 0.45
  angle deg
:documentation
   .ast/.asf automatically generated from VICON data using
   VICON BodyBuilder and BodyLanguage model FoxedUp or BRILLIANT.MOD
:root
   order TX TY TZ RX RY RZ
   axis XYZ
   position 0 0 0  
   orientation 0 0 0 
:bonedata
  begin
     id 1 
     name lhipjoint
     direction 0.602128 -0.715006 0.355257 
     length 2.21237 
     axis 0 0 0  XYZ
  end
  begin
     id 2 
     name lfemur
     direction 0.34202 -0.939693 0  
     length 6.71649  
     axis 0 0 20  XYZ
    dof rx ry rz
    limits (-160.0 20.0)
           (-70.0 70.0)
           (-60.0 70.0)
  end
  begin
     id 3 
     name ltibia
     direction 0.34202 -0.939693 0   
     length 6.97123   
     axis 0 0 20   XYZ
    dof rx
    limits (-10.0 170.0)
  end
  begin
     id 4 
     name lfoot
     direction 0.0655697 -0.180151 0.981451   
     length 1.80924   
     axis -90 7.62852e-016 20   XYZ
    dof rx rz
    limits (-45.0 90.0)
           (-70.0 20.0)
  end
  begin
     id 5 
     name ltoes
     direction 1.53545e-011 -4.21827e-011 1   
     length 0.916331   
     axis -90 7.62852e-016 20   XYZ
    dof rx
    limits (-90.0 20.0)
  end
  begin
     id 6 
     name rhipjoint
     direction -0.625414 -0.698792 0.347201   
     length 2.2637  
     axis 0 0 0  XYZ 
  end
  begin
     id 7 
     name rfemur
     direction -0.34202 -0.939693 0   
     length 7.07595   
     axis 0 0 -20   XYZ
    dof rx ry rz
    limits (-160.0 20.0)
           (-70.0 70.0)
           (-70.0 60.0)
  end
  begin
     id 8 
     name rtibia
     direction -0.34202 -0.939693 0   
     length 7.22924   
     axis 0 0 -20   XYZ
    dof rx
    limits (-10.0 170.0)
 end
 begin
     id 9 
     name rfoot
     direction -0.0766747 -0.210662 0.974547   
     length 1.98482  
     axis -90 -7.62852e-016 -20   XYZ
    dof rx rz
    limits (-45.0 90.0)
           (-20.0 70.0)
  end
  begin
     id 10 
     name rtoes
     direction -1.53532e-011 -4.21867e-011 1   
     length 0.999842   
     axis -90 -7.62852e-016 -20   XYZ
    dof rx
    limits (-90.0 20.0)
  end
  begin
     id 11 
     name lowerback
     direction -0.0224668 0.997354 -0.0691422   
     length 2.09945   
     axis 0 0 0   XYZ
    dof rx ry rz
    limits (-20.0 45.0)
           (-30.0 30.0)
           (-30.0 30.0)
  end
  begin
     id 12 
     name upperback
     direction 0.0134698 0.998451 -0.0539888   
     length 2.09758   
     axis 0 0 0   XYZ
    dof rx ry rz
    limits (-20.0 45.0)
           (-30.0 30.0)
           (-30.0 30.0)
  end
  begin
     id 13 
     name thorax
     direction 0.0241905 0.99948 -0.0213333   
     length 2.10428   
     axis 0 0 0   XYZ
    dof rx ry rz
    limits (-20.0 45.0)
           (-30.0 30.0)
           (-30.0 30.0)
  end
  begin
     id 14 
     name lowerneck
     direction -0.00866847 0.995978 0.0891737   
     length 1.3959   
     axis 0 0 0   XYZ
    dof rx ry rz
    limits (-20.0 45.0)
           (-30.0 30.0)
           (-30.0 30.0)
  end
  begin
     id 15 
     name upperneck
     direction 0.0680679 0.992203 0.104404   
     length 1.39452   
     axis 0 0 0   XYZ
    dof rx ry rz
    limits (-20.0 45.0)
           (-30.0 30.0)
           (-30.0 30.0)
  end
  begin
     id 16
     name head
     direction 0.0242216 0.999358 0.0264054  
     length 1.40433  
     axis 0 0 0   XYZ
    dof rx ry rz
    limits (-20.0 45.0)
           (-30.0 30.0)
           (-30.0 30.0)
  end
  begin
     id 17 
     name lclavicle
     direction 0.929368 0.362991 -0.0671771  
     length 3.04887  
     axis 0 0 0   XYZ
    dof ry rz
    limits (-20.0 10.0)
           (0.0 20.0)
  end
  begin
     id 18 
     name lhumerus
     direction 1 -4.48967e-011 -7.13741e-028   
     length 4.77195   
     axis -180 -30 -90   XYZ
    dof rx ry rz
    limits (-60.0 90.0)
           (-90.0 90.0)
           (-90.0 90.0)
  end
  begin
     id 19
     name lradius
     direction 1 -4.48977e-011 3.60404e-027   
     length 2.98444   
     axis -180 -30 -90   XYZ
    dof rx
    limits (-10.0 170.0)
  end
  begin
     id 20
     name lwrist
     direction 1 -4.48997e-011 7.54877e-027   
     length 1.49222   
     axis -7.18178e-015 90 90   XYZ
    dof ry
    limits (-180.0 0.0)
 end
  begin
     id 21 
     name lhand
     direction 1 -4.489e-011 1.51105e-026   
     length 0.992285   
     axis -9.63605e-015 90 90   XYZ
    dof rx rz
    limits (-90.0 90.0)
           (-45.0 45.0)
  end
  begin
     id 22 
     name lfingers
     direction 1 -4.48998e-011 3.01948e-026   
     length 0.800006   
     axis -1.92718e-014 90 90   XYZ
    dof rx
    limits (0.0 90.0)
  end
  begin
     id 23
     name lthumb
     direction 0.707107 -6.34881e-011 0.707107   
     length 1.14865   
     axis -90 45 -3.53137e-014   XYZ
    dof rx rz
    limits (-45.0 45.0)
           (-45.0 45.0)
  end
  begin
     id 24 
     name rclavicle
     direction -0.945672 0.324529 0.0196374   
     length 3.4236  
     axis 0 0 0   XYZ 
    dof ry rz
    limits (-10.0 20.0)
           (-20.0 0.0)
  end
  begin
     id 25 
     name rhumerus
     direction -1 -4.4896e-011 1.02757e-029  
     length 4.62052   
     axis -180 30 90   XYZ
    dof rx ry rz
    limits (-90.0 60.0)
           (-90.0 90.0)
           (-90.0 90.0)
  end
  begin
     id 26 
     name rradius
     direction -1 -4.48982e-011 3.85962e-027   
     length 2.95332   
     axis -180 30 90   XYZ
    dof rx
    limits (-10.0 170.0)
  end
  begin
     id 27 
     name rwrist
     direction -1 -4.48961e-011 7.55118e-027   
     length 1.47666   
     axis -7.18178e-015 -90 -90   XYZ
    dof ry
    limits (-180.0 0.0)
  end
  begin
     id 28
     name rhand
     direction -1 -4.48984e-011 1.50994e-026   
     length 0.990956   
     axis -9.63605e-015 -90 -90   XYZ
    dof rx rz
    limits (-90.0 90.0)
           (-45.0 45.0)
  end
  begin
     id 29
     name rfingers
     direction -1 -4.4892e-011 3.02158e-026   
     length 0.798934   
     axis -1.92718e-014 -90 -90   XYZ
    dof rx
    limits (0.0 90.0)
  end
  begin
     id 30
     name rthumb
     direction -0.707107 -6.34916e-011 0.707107   
     length 1.14711   
     axis -90 -45 3.53137e-014   XYZ
    dof rx rz
    limits (-45.0 45.0)
           (-45.0 45.0)
  end
:hierarchy
  begin
    root lhipjoint rhipjoint lowerback
    lhipjoint lfemur
    lfemur ltibia
    ltibia lfoot
    lfoot ltoes
    rhipjoint rfemur
    rfemur rtibia
    rtibia rfoot
    rfoot rtoes
    lowerback upperback
    upperback thorax
    thorax lowerneck lclavicle rclavicle
    lowerneck upperneck
    upperneck head
    lclavicle lhumerus
    lhumerus lradius
    lradius lwrist
    lwrist lhand lthumb
    lhand lfingers
    rclavicle rhumerus
    rhumerus rradius
    rradius rwrist
    rwrist rhand rthumb
    rhand rfingers
  end

#!OML:ASF H:\ManfredObstacles\Project 1\Capture day 1\Session 1\Male.ASF
:FULLY-SPECIFIED
:DEGREES
285
root 1.07871 16.2968 -5.23154 -171.481 0.210198 -178.203
lowerback -11.6991 0.171245 -0.909165
upperback 1.53921 0.373246 -0.0375586
thorax 8.21285 0.14388 0.543314
lowerneck -1.21508 -0.717447 -5.49755
upperneck -5.1298 -0.876695 7.59321
head -1.36635 -0.537968 3.44676
rclavicle -7.45443e-016 7.95139e-016
rhumerus -32.2306 -17.9009 -81.1985
rradius 29.0021
rwrist 28.5433
rhand -0.654899 -8.46555
rfingers 7.12502
rthumb 24.9629 -36.8549
lclavicle -7.45443e-016 7.95139e-016
lhumerus -33.076 20.8263 75.6838
lradius 17.4886
lwrist -34.8709
lhand -7.91566 7.61145
lfingers 7.12502
lthumb 17.99 36.7994
rfemur 0.38107 -2.1908 24.4586
rtibia 18.5647
rfoot -23.4736 12.4948
rtoes 17.3574
lfemur -30.4841 -0.843686 -16.3347
ltibia 13.5987
lfoot 3.26437 -1.93706
ltoes -11.9365
286
root 1.03743 16.3013 -5.48387 -171.723 0.427772 -179.016
lowerback -11.8008 0.144825 -1.91466
upperback 1.47755 0.510561 -0.273188
thorax 8.19771 0.172858 0.886905
lowerneck -1.29255 -0.733295 -5.39205
upperneck -4.81385 -0.899264 7.6195
head -1.24847 -0.544024 3.43039
rclavicle -1.49089e-015 7.95139e-015
rhumerus -32.7642 -18.2543 -80.7383
rradius 28.6033
rwrist 28.8438
rhand -0.830959 -8.5915
rfingers 7.12502
rthumb 24.7942 -37.0042
lclavicle -1.49089e-015 7.95139e-015
lhumerus -33.5532 22.4844 74.654
lradius 16.9961
lwrist -36.5173
lhand -7.94282 7.67052
lfingers 7.12502
lthumb 17.9639 36.8609
rfemur 1.11214 -1.38163 23.4547
rtibia 19.5819
rfoot -23.3273 11.7591
rtoes 16.7027
lfemur -29.7683 -0.419219 -17.6837
ltibia 13.9716
lfoot 4.89226 -2.82485
ltoes -13.0373
287
root 0.986574 16.3044 -5.73194 -172.163 0.57257 -179.871
lowerback -11.6791 0.071524 -2.91864
upperback 1.49981 0.57867 -0.477426
thorax 8.14518 0.168203 1.24845
lowerneck -1.35817 -0.764543 -5.421
upperneck -4.59895 -0.940675 7.70451
head -1.16425 -0.560335 3.46219
rclavicle -4.32357e-015 1.51076e-014
rhumerus -33.2585 -18.8864 -80.0716
rradius 28.1003
rwrist 29.4888
rhand -1.15739 -8.52604
rfingers 7.12502
rthumb 24.4813 -36.9814
lclavicle -4.32357e-015 1.51076e-014
lhumerus -34.0453 24.4407 73.5502
lradius 16.4366
lwrist -38.3559
lhand -8.12913 7.73597
lfingers 7.12502
lthumb 17.7846 36.9427
rfemur 1.83571 -0.710831 22.3681
rtibia 20.9737
rfoot -22.89 11.2399
rtoes 15.9959
lfemur -28.6903 0.28903 -19.1576
ltibia 14.2421
lfoot 6.04739 -3.69148
ltoes -9.57182
288
root 0.93605 16.3084 -5.97377 -173.005 0.61522 -180.712
lowerback -11.0965 0.0440519 -3.85924
upperback 1.65637 0.681929 -0.730129
thorax 7.97125 0.186263 1.52476
lowerneck -1.26011 -0.835473 -5.46662
upperneck -4.63934 -1.0362 7.925
head -1.18745 -0.614598 3.54975
rclavicle 5.96354e-016 -3.97569e-015
rhumerus -33.876 -20.1189 -79.1913
rradius 27.7449
rwrist 30.5722
rhand -1.23801 -8.39121
rfingers 7.12502
rthumb 24.4041 -36.857
lclavicle 5.96354e-016 -3.97569e-015
lhumerus -34.3758 26.2343 72.4357
lradius 15.8035
lwrist -40.2199
lhand -8.34184 7.76923
lfingers 7.12502
lthumb 17.5799 36.9944
rfemur 2.57005 -0.260286 21.3198
rtibia 23.1284
rfoot -22.2761 10.666
rtoes 13.9574
lfemur -27.0978 1.02636 -20.5556
ltibia 14.5628
lfoot 6.56859 -4.84144
ltoes -13.6738
289
root 0.886705 16.3109 -6.20795 -174.487 0.430684 -181.568
lowerback -9.73641 0.0144179 -4.77612
upperback 1.96193 0.73436 -1.03283
thorax 7.51295 0.189579 1.71802
lowerneck -1.18409 -0.907816 -5.45127
upperneck -4.59968 -1.1359 8.20905
head -1.18027 -0.67235 3.64683
rclavicle -5.41688e-015 -9.14409e-015
rhumerus -34.6028 -21.5598 -78.254
rradius 27.3997
rwrist 31.6507
rhand -1.34122 -8.16577
rfingers 7.12502
rthumb 24.3051 -36.6449
lclavicle -5.41688e-015 -9.14409e-015
lhumerus -34.7335 28.2195 71.0537
lradius 15.0963
lwrist -42.4393
lhand -8.4144 7.80296
lfingers 7.12502
lthumb 17.5101 37.0344
rfemur 3.63337 -0.382977 20.2368
rtibia 25.9867
rfoot -21.3249 10.1803
rtoes 10.9142
lfemur -24.7699 1.60508 -21.8525
ltibia 14.897
lfoot 5.91118 -5.64543
ltoes -17.5454
290
root 0.833562 16.3165 -6.43176 -176.168 0.126191 -182.437
lowerback -8.05812 -0.0372584 -5.61722
upperback 2.31965 0.715622 -1.37092
thorax 6.93276 0.172434 1.81829
lowerneck -1.23631 -0.962325 -5.34266
upperneck -4.39386 -1.21572 8.47647
head -1.0979 -0.716884 3.71639
rclavicle -4.96962e-016 2.34566e-014
rhumerus -35.2902 -22.8356 -77.4213
rradius 27.0069
rwrist 32.2744
rhand -1.59711 -7.99257
rfingers 7.12502
rthumb 24.0598 -36.5043
lclavicle -4.96962e-016 2.34566e-014
lhumerus -35.0697 30.0887 69.6516
lradius 14.4158
lwrist -44.4922
lhand -8.30872 7.90899
lfingers 7.12502
lthumb 17.6118 37.1313
rfemur 4.4421 -0.973886 18.9883
rtibia 29.537
rfoot -19.8381 10.2105
rtoes 9.72464
lfemur -22.1739 2.01854 -23.0684
ltibia 15.1858
lfoot 5.14062 -7.14463
ltoes -20.8574
